<?xml version="1.0" standalone="no"?>
<!DOCTYPE svg PUBLIC "-//W3C//DTD SVG 20010904//EN"
 "http://www.w3.org/TR/2001/REC-SVG-20010904/DTD/svg10.dtd">
<svg version="1.0" xmlns="http://www.w3.org/2000/svg"
 width="220.000000pt" height="90.000000pt" viewBox="0 0 220.000000 90.000000"
 preserveAspectRatio="xMidYMid meet">
<metadata>
Created by potrace 1.15, written by Peter Selinger 2001-2017
</metadata>
<g transform="translate(0.000000,90.000000) scale(0.100000,-0.100000)"
fill="#000000" stroke="none">
<path d="M27 854 c-12 -12 -8 -610 4 -636 15 -35 72 -70 106 -66 28 3 28 4 31
77 2 56 7 78 20 87 9 8 20 14 23 14 3 0 39 -51 79 -112 40 -62 82 -128 94
-145 21 -32 22 -33 99 -33 110 0 114 -15 -76 262 -48 70 -87 132 -87 136 0 5
10 20 23 33 12 14 37 42 54 64 18 21 34 37 36 34 2 -2 16 -49 30 -104 66 -256
67 -259 98 -287 22 -21 40 -28 69 -28 29 0 48 7 70 28 29 25 32 37 56 177 24
143 34 183 34 137 0 -12 12 -82 26 -154 22 -118 29 -136 55 -160 22 -21 39
-28 70 -28 77 0 95 26 143 210 13 52 34 129 45 170 11 41 21 87 21 103 0 27 0
27 -69 27 l-69 0 -15 -77 c-9 -43 -24 -117 -34 -165 -10 -49 -20 -88 -23 -88
-3 0 -14 46 -24 103 -10 56 -25 130 -34 165 l-15 62 -78 0 c-43 0 -80 -4 -83
-9 -3 -5 -15 -58 -27 -117 -11 -60 -26 -131 -33 -158 l-13 -49 -17 74 c-9 41
-25 115 -34 164 l-18 90 -121 3 -121 3 -76 -101 -76 -100 -2 197 -3 198 -65 3
c-36 2 -69 0 -73 -4z"/>
<path d="M1775 848 c-3 -7 -4 -166 -3 -353 l3 -340 70 0 70 0 0 350 0 350 -68
3 c-48 2 -69 -1 -72 -10z"/>
<path d="M2015 848 c-3 -7 -4 -166 -3 -353 l3 -340 70 0 70 0 0 350 0 350 -68
3 c-48 2 -69 -1 -72 -10z"/>
<path d="M1314 646 c-50 -22 -122 -97 -139 -145 -18 -52 -20 -168 -3 -225 17
-56 84 -121 140 -136 47 -13 164 -8 179 7 6 6 9 39 7 74 -3 71 5 67 -89 53
-100 -15 -142 144 -55 211 52 40 100 35 148 -15 l38 -41 0 -90 c0 -55 6 -103
14 -124 16 -39 64 -68 104 -63 l27 3 0 165 c0 156 -1 168 -25 213 -27 54 -76
98 -129 115 -46 16 -179 14 -217 -2z"/>
</g>
</svg>
